<svg width="38" height="38" viewBox="0 0 38 38" fill="none" xmlns="http://www.w3.org/2000/svg">
<path d="M31.2561 8.995V8.99625C31.2561 10.2388 30.2486 11.245 29.0074 11.245C27.7661 11.245 26.7586 10.2375 26.7586 8.99625C26.7586 7.75376 27.7661 6.74751 29.0074 6.74751C30.2486 6.74875 31.2549 7.75375 31.2561 8.995ZM18.9999 25.2488C15.5486 25.2488 12.7511 22.4513 12.7511 19C12.7511 15.5488 15.5486 12.7513 18.9999 12.7513C22.4511 12.7513 25.2486 15.5488 25.2486 19V19.0013C25.2486 22.4513 22.4524 25.2475 19.0024 25.2475H19.0011L18.9999 25.2488ZM18.9999 9.37501C13.6836 9.37501 9.37488 13.685 9.37488 19C9.37488 24.315 13.6849 28.625 18.9999 28.625C24.3161 28.625 28.6249 24.315 28.6249 19C28.6249 19 28.6249 19 28.6249 18.9988C28.6249 13.6838 24.3161 9.37375 18.9999 9.37375C18.9999 9.37375 18.9999 9.37375 18.9986 9.37375L18.9999 9.37501ZM18.9999 3.63C24.0036 3.63 24.5999 3.655 26.5761 3.74125C27.8299 3.75625 29.0224 3.99375 30.1261 4.41375L30.0549 4.39C31.6974 5.03 32.9724 6.305 33.5986 7.905L33.6136 7.9475C34.0086 8.98001 34.2436 10.1738 34.2586 11.42V11.4263C34.3474 13.4038 34.3674 13.9975 34.3674 19.0025C34.3674 24.0075 34.3436 24.6025 34.2524 26.5788C34.2286 27.8338 33.9899 29.0263 33.5711 30.13L33.5949 30.0575C33.2724 30.9025 32.7949 31.6225 32.1911 32.215L32.1899 32.2163C31.5986 32.8213 30.8786 33.2988 30.0749 33.6025L30.0349 33.6163C28.9986 34.0113 27.8011 34.2463 26.5499 34.2613H26.5436C24.5536 34.35 23.9674 34.37 18.9536 34.37C13.9374 34.37 13.3524 34.3463 11.3636 34.255C10.1036 34.2313 8.90613 33.9925 7.79738 33.5738L7.87113 33.5975C7.02613 33.28 6.30613 32.8013 5.71863 32.195L5.71738 32.1938C5.10613 31.6063 4.62613 30.885 4.32488 30.0775L4.31238 30.0388C3.91863 29.0038 3.67988 27.8075 3.65613 26.5575V26.5475C3.58613 24.5788 3.56113 23.9713 3.56113 18.9813C3.56113 13.9888 3.58613 13.38 3.65613 11.3875C3.67988 10.1288 3.91738 8.9325 4.33613 7.825L4.31238 7.89875C4.62113 7.05 5.10238 6.3275 5.71613 5.74375L5.71863 5.74125C6.30363 5.12625 7.02488 4.64751 7.83363 4.35125L7.87238 4.33875C8.90113 3.94125 10.0899 3.7025 11.3324 3.68125H11.3411C13.3324 3.61125 13.9186 3.58751 18.9311 3.58751L18.9999 3.63ZM18.9999 0.255005C13.9074 0.255005 13.2724 0.278755 11.2724 0.367505C9.62863 0.402505 8.06988 0.720005 6.62738 1.27126L6.72238 1.24001C5.42238 1.73626 4.31488 2.4725 3.40238 3.4L3.40113 3.40125C2.46988 4.31376 1.73488 5.4225 1.25988 6.66L1.23863 6.7225C0.718633 8.07 0.401133 9.63 0.367383 11.2575V11.2725C0.273633 13.2725 0.254883 13.9075 0.254883 19C0.254883 24.0925 0.278633 24.7275 0.367383 26.7275C0.402383 28.3713 0.719883 29.93 1.27113 31.3725L1.23988 31.2775C2.23488 33.8038 4.19613 35.765 6.65738 36.7375L6.72238 36.76C8.06988 37.2788 9.62988 37.5963 11.2574 37.6313H11.2724C13.2724 37.725 13.9074 37.7438 18.9999 37.7438C24.0924 37.7438 24.7274 37.72 26.7274 37.6313C28.3711 37.595 29.9299 37.2788 31.3724 36.7275L31.2774 36.76C33.8036 35.765 35.7649 33.8038 36.7374 31.3425L36.7599 31.2775C37.2799 29.93 37.5961 28.37 37.6311 26.7425V26.7275C37.7249 24.7275 37.7436 24.0925 37.7436 19C37.7436 13.9075 37.7199 13.2725 37.6311 11.2725C37.5949 9.62875 37.2786 8.07001 36.7274 6.62751L36.7599 6.7225C36.2624 5.4225 35.5274 4.31501 34.5986 3.4025L34.5974 3.40125C33.6849 2.47 32.5761 1.735 31.3386 1.26L31.2761 1.23875C29.9286 0.718755 28.3686 0.401255 26.7411 0.367505H26.7261C24.7261 0.273755 24.0911 0.255005 18.9986 0.255005H18.9999Z" fill="currentColor"/>
</svg>
