<svg width="60" height="60" viewBox="0 0 60 60" fill="none" xmlns="http://www.w3.org/2000/svg">
<path d="M47.2394 60H12.7775C5.71268 60 0 54.2873 0 47.2394V12.7775C0 5.71268 5.71268 0 12.7775 0H47.2394C54.2873 0 60 5.71268 60 12.7775V47.2394C60 54.2873 54.2873 60 47.2394 60Z" fill="#E83036"/>
<path d="M33.9041 33.7183C33.245 33.7183 32.721 33.2113 32.721 32.5859C32.721 31.9606 33.2619 31.4535 33.9041 31.4535H38.0112V28.4451H33.9041C33.245 28.4451 32.721 27.938 32.721 27.3127C32.721 26.6873 33.2619 26.1803 33.9041 26.1803H38.0112V23.1718H33.9041C33.245 23.1718 32.721 22.6648 32.721 22.0394C32.721 21.4141 33.2619 20.907 33.9041 20.907H38.0112V19.5042C38.0112 15.938 34.9351 13.031 31.1661 13.031H28.9858C25.2168 13.031 22.1407 15.938 22.1407 19.5042V20.907H26.1802C26.8393 20.907 27.3633 21.4141 27.3633 22.0394C27.3633 22.6648 26.8224 23.1718 26.1802 23.1718H22.1407V26.1803H26.1802C26.8393 26.1803 27.3633 26.6873 27.3633 27.3127C27.3633 27.938 26.8224 28.4451 26.1802 28.4451H22.1407V31.4535H26.1802C26.8393 31.4535 27.3633 31.9606 27.3633 32.5859C27.3633 33.2113 26.8224 33.7183 26.1802 33.7183H22.1407V36.6253C22.1407 40.1915 25.2168 43.0986 28.9858 43.0986H31.1661C34.9351 43.0986 38.0112 40.1915 38.0112 36.6253V33.7183H33.9041Z" fill="#E3E2DA"/>
<path d="M19.6225 35.3915C19.3352 35.7633 19.0309 36.2197 18.7605 36.7605C18.0169 38.2817 17.9831 39.7183 18.0169 40.5634C17.9492 40.3774 17.8647 40.1239 17.7802 39.8028C17.7464 39.6507 17.5943 39.0253 17.5267 38.1126C17.5098 37.8253 17.5098 37.369 17.5267 36.4732C17.5267 36.4225 17.5267 36.0338 17.5267 35.5436C17.5267 35.4929 17.5267 35.2732 17.5267 35.2225C17.6788 35.1549 17.9154 35.0535 18.2197 35.0366C18.3042 35.0366 18.3887 35.0366 18.4901 35.0535C18.7098 35.1042 19.0816 35.1718 19.6225 35.3915Z" fill="#040405"/>
<path d="M18.4731 37.4704C18.4731 37.4704 20.2816 37.0479 22.0562 40.6986C22.3436 41.2056 22.6478 41.5774 22.8844 41.8141C23.6112 42.5746 24.3717 42.9465 24.8281 43.1493C25.2337 43.3352 25.5717 43.4535 25.8253 43.5211C25.5717 43.6563 25.2337 43.8084 24.845 43.876C24.2196 43.9943 23.29 43.9774 22.1577 43.4873C22.1577 43.5042 18.7605 41.7465 18.4731 37.4704Z" fill="#E3E2DA"/>
<path d="M18.4731 37.4704C18.4731 37.4704 20.2478 37.0817 22.0562 40.6986C21.9379 40.4958 21.8196 40.2592 21.7182 40.0056C21.414 39.2282 21.2957 38.5183 21.2788 37.9606C21.2112 37.4535 21.0591 37.0648 20.9408 36.8113C20.8055 36.507 20.6534 36.1859 20.3323 35.8817C20.0619 35.6282 19.7746 35.493 19.5886 35.4084C19.521 35.4592 19.4196 35.5606 19.3182 35.6789C19.0309 36.0169 18.8957 36.338 18.7098 36.7944C18.6422 36.9634 18.5577 37.1831 18.4731 37.4704Z" fill="#342F30"/>
<path d="M18.7605 26.6873L17.5436 35.2394C17.8647 35.1549 18.5577 35.0028 19.3182 35.2901C20.3661 35.6789 21.1267 36.7099 21.2788 37.9606C21.2619 36.7606 21.2619 35.5437 21.245 34.3437C21.2619 34.3268 21.0929 28.5465 18.7605 26.6873Z" fill="#E3E2DA"/>
<path d="M18.7605 26.6873C18.7605 26.6873 20.8225 28.7493 21.2619 34.3436V23.1887C21.2619 23.1718 19.6732 24.169 18.7605 26.6873Z" fill="#3F0D0F"/>
<path d="M18.7605 26.6873C18.7605 26.6873 20.3154 32.9915 17.5436 35.2394V30.693C17.5436 30.6761 17.8647 28.0225 18.7605 26.6873Z" fill="#342F30"/>
<path d="M21.2619 23.1718C21.2619 23.1718 18.1689 25.9267 17.5436 30.676V23.1718H21.2619Z" fill="#040405"/>
<path d="M22.1577 43.5042C22.1577 43.5042 24.1859 44.4169 25.8253 43.538C25.8253 43.538 26.4 45.9042 28.7831 46.8169C28.7831 46.8338 24.3211 46.4113 22.1577 43.5042Z" fill="#342F30"/>
<path d="M18.4731 37.4704C18.8112 38.6704 19.5041 40.4958 20.9745 42.2704C23.7802 45.6676 27.5154 46.5634 28.783 46.8169C28.1745 46.7831 27.3464 46.7324 26.3492 46.5803C25.3182 46.4281 24.49 46.2929 23.5774 45.9887C22.9689 45.7859 21.076 45.0929 19.521 43.2676C18.9126 42.5408 18.2534 41.7803 18.0337 40.5465C17.7633 39.1267 18.2365 37.9605 18.4731 37.4704Z" fill="#3F0D0F"/>
<path d="M25.8253 43.538C25.8253 43.538 28.1408 44.4 31.876 44.0282C31.876 44.0282 29.0197 44.9746 28.7831 46.8338C28.7831 46.8338 26.4676 46.107 25.8253 43.538Z" fill="#3F0D0F"/>
<path d="M31.8759 44.0281C31.8759 44.0281 29.1379 44.7211 28.783 46.8338C28.783 46.8338 32.0787 47.0704 34.8506 46.3605C34.8506 46.3605 38.0111 45.7183 39.7351 43.9605C39.7351 43.9605 34.6308 46.5465 31.8759 44.0281Z" fill="#040405"/>
<path d="M31.876 44.0281C31.876 44.0281 35.4084 43.876 37.3182 41.831C37.3182 41.831 37.0816 44.0281 39.7351 43.9605C39.7351 43.9605 34.8168 46.7493 31.876 44.0281Z" fill="#E3E2DA"/>
<path d="M41.5774 37.4704C41.5774 37.4704 42.2027 36.3042 42.4224 34.3268V28.9014L40.1746 33.3803C40.1746 33.3972 40.783 34.3437 41.5774 37.4704Z" fill="#342F30"/>
<path d="M37.3182 41.831C37.4873 41.6281 37.7239 41.307 37.9436 40.9183C38.3999 40.107 38.5351 39.3803 38.6196 38.9239C38.7042 38.4169 38.7211 37.8422 38.7549 36.7267C38.7718 36.0507 38.7718 35.5605 38.7718 35.1042C38.7718 34.3098 38.7718 33.2789 38.7549 32.062C39.245 32.4 40.0901 33.076 40.7154 34.2253C41.1718 35.0535 41.5436 36.1352 41.5774 37.4873C41.5774 37.4704 40.1915 41.831 37.3182 41.831Z" fill="#040405"/>
<path d="M37.3182 41.831C37.3182 41.831 41.0196 41.8986 42.4224 34.3436C42.4224 34.3436 42.7435 38.4169 41.8647 40.7155C41.8647 40.7155 41.4421 42.3718 39.7351 43.9605C39.7351 43.9605 36.9971 44.3662 37.3182 41.831Z" fill="#3F0D0F"/>
<path d="M38.7549 23.1718H42.4225V28.9183C41.0028 28.0901 40.5126 27.4986 40.3436 27.0929C40.3267 27.0591 40.276 26.9239 40.1577 26.6197C39.938 26.0451 39.7521 25.6394 39.6845 25.4535C39.4816 24.9634 39.1943 24.2535 38.7549 23.1718Z" fill="#040405"/>
<path d="M38.7549 32.062V23.1718C39.0253 23.5436 39.3971 24.1183 39.769 24.8789C40.3605 26.1127 40.4112 26.7211 41.0028 27.5493C41.2732 27.938 41.7126 28.4451 42.4225 28.9183C42.4056 29.4929 42.2704 30.6084 41.5774 31.7746C41.1211 32.5521 40.5633 33.076 40.1577 33.3972C39.7014 32.9408 39.2281 32.5014 38.7549 32.062Z" fill="#E3E2DA"/>
</svg>
