<svg width="18" height="24" viewBox="0 0 18 24" fill="none" xmlns="http://www.w3.org/2000/svg">
<path d="M7.66647 18.9907L2.39981 13.724C2.27681 13.5967 2.12968 13.4951 1.96701 13.4252C1.80434 13.3553 1.62938 13.3185 1.45234 13.317C1.2753 13.3155 1.09973 13.3492 0.935867 13.4162C0.772006 13.4833 0.623137 13.5823 0.497947 13.7075C0.372756 13.8327 0.273752 13.9815 0.206711 14.1454C0.13967 14.3093 0.105934 14.4848 0.107472 14.6619C0.109011 14.8389 0.145792 15.0139 0.215671 15.1765C0.28555 15.3392 0.387126 15.4863 0.514473 15.6093L8.05714 23.152C8.30718 23.402 8.64625 23.5424 8.99981 23.5424C9.35336 23.5424 9.69244 23.402 9.94247 23.152L17.4851 15.6093C17.728 15.3579 17.8624 15.0211 17.8594 14.6715C17.8563 14.3219 17.7161 13.9875 17.4689 13.7402C17.2217 13.493 16.8873 13.3528 16.5377 13.3498C16.1881 13.3467 15.8513 13.4811 15.5998 13.724L10.3331 18.9907V1.33333C10.3331 0.979711 10.1927 0.640573 9.94262 0.390524C9.69257 0.140476 9.35343 0 8.99981 0C8.64618 0 8.30705 0.140476 8.057 0.390524C7.80695 0.640573 7.66647 0.979711 7.66647 1.33333V18.9907Z" fill="#DF4C4C"/>
</svg>
