<svg width="60" height="60" viewBox="0 0 60 60" fill="none" xmlns="http://www.w3.org/2000/svg">
<path d="M47.2394 60H12.7775C5.71268 60 0 54.2873 0 47.2394V12.7775C0 5.71268 5.71268 0 12.7775 0H47.2394C54.2873 0 60 5.71268 60 12.7775V47.2394C60 54.2873 54.2873 60 47.2394 60Z" fill="#E83036"/>
<path d="M33.9045 33.7183C33.2453 33.7183 32.7214 33.2113 32.7214 32.5859C32.7214 31.9606 33.2622 31.4535 33.9045 31.4535H38.0115V28.4451H33.9045C33.2453 28.4451 32.7214 27.938 32.7214 27.3127C32.7214 26.6873 33.2622 26.1803 33.9045 26.1803H38.0115V23.1718H33.9045C33.2453 23.1718 32.7214 22.6648 32.7214 22.0394C32.7214 21.4141 33.2622 20.907 33.9045 20.907H38.0115V19.5042C38.0115 15.938 34.9355 13.031 31.1665 13.031H28.9862C25.2172 13.031 22.1411 15.938 22.1411 19.5042V20.907H26.1805C26.8397 20.907 27.3636 21.4141 27.3636 22.0394C27.3636 22.6648 26.8228 23.1718 26.1805 23.1718H22.1411V26.1803H26.1805C26.8397 26.1803 27.3636 26.6873 27.3636 27.3127C27.3636 27.938 26.8228 28.4451 26.1805 28.4451H22.1411V31.4535H26.1805C26.8397 31.4535 27.3636 31.9606 27.3636 32.5859C27.3636 33.2113 26.8228 33.7183 26.1805 33.7183H22.1411V36.6253C22.1411 40.1915 25.2172 43.0986 28.9862 43.0986H31.1665C34.9355 43.0986 38.0115 40.1915 38.0115 36.6253V33.7183H33.9045Z" fill="#E3E2DA"/>
<path d="M19.6226 35.3915C19.3353 35.7633 19.0311 36.2197 18.7606 36.7605C18.017 38.2817 17.9832 39.7183 18.017 40.5634C17.9494 40.3774 17.8649 40.1239 17.7804 39.8028C17.7466 39.6507 17.5944 39.0253 17.5268 38.1126C17.5099 37.8253 17.5099 37.369 17.5268 36.4732C17.5268 36.4225 17.5268 36.0338 17.5268 35.5436C17.5268 35.4929 17.5268 35.2732 17.5268 35.2225C17.6789 35.1549 17.9156 35.0535 18.2198 35.0366C18.3043 35.0366 18.3888 35.0366 18.4902 35.0535C18.7099 35.1042 19.0818 35.1718 19.6226 35.3915Z" fill="#040405"/>
<path d="M18.4736 37.4704C18.4736 37.4704 20.2821 37.0479 22.0567 40.6986C22.3441 41.2056 22.6483 41.5774 22.8849 41.8141C23.6117 42.5746 24.3722 42.9465 24.8286 43.1493C25.2342 43.3352 25.5722 43.4535 25.8257 43.5211C25.5722 43.6563 25.2342 43.8084 24.8455 43.876C24.2201 43.9943 23.2905 43.9774 22.1581 43.4873C22.1581 43.5042 18.761 41.7465 18.4736 37.4704Z" fill="#E3E2DA"/>
<path d="M18.4736 37.4704C18.4736 37.4704 20.2483 37.0817 22.0567 40.6986C21.9384 40.4958 21.8201 40.2592 21.7187 40.0056C21.4145 39.2282 21.2962 38.5183 21.2793 37.9606C21.2117 37.4535 21.0595 37.0648 20.9412 36.8113C20.806 36.507 20.6539 36.1859 20.3328 35.8817C20.0624 35.6282 19.775 35.493 19.5891 35.4084C19.5215 35.4592 19.4201 35.5606 19.3187 35.6789C19.0314 36.0169 18.8962 36.338 18.7103 36.7944C18.6426 36.9634 18.5581 37.1831 18.4736 37.4704Z" fill="#342F30"/>
<path d="M18.7608 26.6873L17.5439 35.2394C17.8651 35.1549 18.558 35.0028 19.3186 35.2901C20.3665 35.6789 21.127 36.7099 21.2792 37.9606C21.2623 36.7606 21.2623 35.5437 21.2454 34.3437C21.2623 34.3268 21.0932 28.5465 18.7608 26.6873Z" fill="#E3E2DA"/>
<path d="M18.7607 26.6873C18.7607 26.6873 20.8227 28.7493 21.2622 34.3436V23.1887C21.2622 23.1718 19.6734 24.169 18.7607 26.6873Z" fill="#3F0D0F"/>
<path d="M18.7608 26.6873C18.7608 26.6873 20.3158 32.9915 17.5439 35.2394V30.693C17.5439 30.6761 17.8651 28.0225 18.7608 26.6873Z" fill="#342F30"/>
<path d="M21.2623 23.1718C21.2623 23.1718 18.1693 25.9267 17.5439 30.676V23.1718H21.2623Z" fill="#040405"/>
<path d="M22.1582 43.5042C22.1582 43.5042 24.1864 44.4169 25.8258 43.538C25.8258 43.538 26.4005 45.9042 28.7836 46.8169C28.7836 46.8338 24.3216 46.4113 22.1582 43.5042Z" fill="#342F30"/>
<path d="M18.4736 37.4704C18.8117 38.6704 19.5046 40.4958 20.975 42.2704C23.7807 45.6676 27.5159 46.5634 28.7835 46.8169C28.175 46.7831 27.3469 46.7324 26.3497 46.5803C25.3187 46.4281 24.4905 46.2929 23.5778 45.9887C22.9694 45.7859 21.0764 45.0929 19.5215 43.2676C18.9131 42.5408 18.2539 41.7803 18.0342 40.5465C17.7638 39.1267 18.237 37.9605 18.4736 37.4704Z" fill="#3F0D0F"/>
<path d="M25.8257 43.538C25.8257 43.538 28.1412 44.4 31.8764 44.0282C31.8764 44.0282 29.0201 44.9746 28.7834 46.8338C28.7834 46.8338 26.4679 46.107 25.8257 43.538Z" fill="#3F0D0F"/>
<path d="M31.8762 44.0281C31.8762 44.0281 29.1381 44.7211 28.7832 46.8338C28.7832 46.8338 32.079 47.0704 34.8508 46.3605C34.8508 46.3605 38.0114 45.7183 39.7353 43.9605C39.7353 43.9605 34.6311 46.5465 31.8762 44.0281Z" fill="#040405"/>
<path d="M31.8765 44.0281C31.8765 44.0281 35.4089 43.876 37.3187 41.831C37.3187 41.831 37.0821 44.0281 39.7356 43.9605C39.7356 43.9605 34.8173 46.7493 31.8765 44.0281Z" fill="#E3E2DA"/>
<path d="M41.5776 37.4704C41.5776 37.4704 42.203 36.3042 42.4227 34.3268V28.9014L40.1748 33.3803C40.1748 33.3972 40.7833 34.3437 41.5776 37.4704Z" fill="#342F30"/>
<path d="M37.3184 41.831C37.4874 41.6281 37.724 41.307 37.9437 40.9183C38.4 40.107 38.5353 39.3803 38.6198 38.9239C38.7043 38.4169 38.7212 37.8422 38.755 36.7267C38.7719 36.0507 38.7719 35.5605 38.7719 35.1042C38.7719 34.3098 38.7719 33.2789 38.755 32.062C39.2451 32.4 40.0902 33.076 40.7155 34.2253C41.1719 35.0535 41.5437 36.1352 41.5775 37.4873C41.5775 37.4704 40.1916 41.831 37.3184 41.831Z" fill="#040405"/>
<path d="M37.3187 41.831C37.3187 41.831 41.0201 41.8986 42.4229 34.3436C42.4229 34.3436 42.744 38.4169 41.8651 40.7155C41.8651 40.7155 41.4426 42.3718 39.7356 43.9605C39.7356 43.9605 36.9975 44.3662 37.3187 41.831Z" fill="#3F0D0F"/>
<path d="M38.7554 23.1718H42.423V28.9183C41.0033 28.0901 40.5131 27.4986 40.3441 27.0929C40.3272 27.0591 40.2765 26.9239 40.1582 26.6197C39.9385 26.0451 39.7526 25.6394 39.6849 25.4535C39.4821 24.9634 39.1948 24.2535 38.7554 23.1718Z" fill="#040405"/>
<path d="M38.7554 32.062V23.1718C39.0258 23.5436 39.3976 24.1183 39.7695 24.8789C40.361 26.1127 40.4117 26.7211 41.0033 27.5493C41.2737 27.938 41.7131 28.4451 42.423 28.9183C42.4061 29.4929 42.2709 30.6084 41.5779 31.7746C41.1216 32.5521 40.5638 33.076 40.1582 33.3972C39.7019 32.9408 39.2286 32.5014 38.7554 32.062Z" fill="#E3E2DA"/>
</svg>
