<svg width="154" height="64" viewBox="0 0 154 64" fill="none" xmlns="http://www.w3.org/2000/svg">
<path d="M140.495 64H13.5046C6.06111 64 0 57.9477 0 50.5417V13.4849C0 6.05226 6.06111 0 13.5046 0H140.522C147.939 0 154.027 6.05226 154.027 13.4849V50.5417C154 57.9477 147.912 64 140.495 64Z" fill="#EA3035"/>
<path d="M30.6776 18.8735V34.0042C30.6776 39.1008 27.7799 41.3837 21.2669 41.3837C16.9603 41.3837 11.8562 40.1095 11.8562 34.0042V18.8735H7.86865V34.2165C7.86865 40.667 12.7335 44.3567 21.1871 44.3567C32.3258 44.3567 34.6651 38.6761 34.6651 33.9246V18.8735H30.6776Z" fill="#040405"/>
<path d="M10.1018 32.0132C9.78282 32.4114 9.46382 32.8892 9.17139 33.4998C8.37388 35.1456 8.32071 36.6852 8.37388 37.5877C8.29413 37.4019 8.21438 37.1099 8.10804 36.7648C8.05487 36.6055 7.89537 35.9419 7.8422 34.9597C7.81562 34.6412 7.81562 34.1634 7.8422 33.2078C7.8422 33.1547 7.8422 32.73 7.8422 32.2256C7.8422 32.1725 7.8422 31.9336 7.8422 31.8805C8.00171 31.8009 8.26754 31.6947 8.58655 31.6947C8.69289 31.6947 8.77264 31.6947 8.87897 31.7212C9.09164 31.6947 9.51698 31.7743 10.1018 32.0132Z" fill="#040405"/>
<path d="M25.4673 30.2082C24.7496 30.2082 24.1913 29.6507 24.1913 28.9871C24.1913 28.3235 24.7761 27.766 25.4673 27.766H29.8802V24.5541H25.4673C24.7496 24.5541 24.1913 23.9966 24.1913 23.333C24.1913 22.6694 24.7761 22.1119 25.4673 22.1119H29.8802V18.9H25.4673C24.7496 18.9 24.1913 18.3425 24.1913 17.6789C24.1913 17.0153 24.7761 16.4578 25.4673 16.4578H29.8802V14.9448C29.8802 11.1223 26.5573 7.98999 22.4899 7.98999H20.1506C16.0832 8.01654 12.7603 11.1488 12.7603 14.9713V16.4844H17.12C17.8378 16.4844 18.396 17.0418 18.396 17.7055C18.396 18.3691 17.8112 18.9265 17.12 18.9265H12.7603V22.165H17.12C17.8378 22.165 18.396 22.7225 18.396 23.3861C18.396 24.0497 17.8112 24.6072 17.12 24.6072H12.7603V27.8457H17.12C17.8378 27.8457 18.396 28.4031 18.396 29.0667C18.396 29.7303 17.8112 30.2878 17.12 30.2878H12.7603V33.4201C12.7603 37.2426 16.0832 40.3749 20.124 40.3749H22.4633C26.5307 40.3749 29.8536 37.2426 29.8536 33.4201V30.2878H25.4673V30.2082Z" fill="#E1E0D9"/>
<path d="M22.6759 45.4717H19.9644V54.6032H22.6759V45.4717Z" fill="#E1E0D9"/>
<path d="M11.4312 56.4348C11.4312 56.4348 20.4696 52.2407 31.5285 56.4348H11.4312Z" fill="#E1E0D9"/>
<path d="M8.85254 34.243C8.85254 34.243 10.7932 33.7918 12.7072 37.7204C13.0262 38.2779 13.3452 38.6761 13.5845 38.915C14.3554 39.7379 15.1795 40.136 15.6846 40.3484C16.1099 40.5608 16.4821 40.6669 16.7479 40.7466C16.4555 40.9058 16.1099 41.0386 15.6846 41.1182C14.9934 41.2509 14.0098 41.2244 12.7869 40.6935C12.8135 40.7466 9.14496 38.8353 8.85254 34.243Z" fill="#E1E0D9"/>
<path d="M8.85254 34.2431C8.85254 34.2431 10.7666 33.8184 12.7072 37.7205C12.5743 37.5081 12.4679 37.2427 12.3616 36.9772C12.016 36.1543 11.9097 35.3845 11.8831 34.774C11.8033 34.2431 11.6438 33.8184 11.5109 33.5264C11.3514 33.2078 11.1919 32.8627 10.8463 32.5177C10.5539 32.2522 10.2615 32.0929 10.0488 32.0133C9.96906 32.0664 9.86272 32.1726 9.75639 32.3053C9.43738 32.6769 9.30446 33.022 9.11838 33.4998C9.03863 33.7122 8.93229 33.9511 8.85254 34.2431Z" fill="#342F30"/>
<path d="M9.14489 22.6429L7.84229 31.8541C8.18787 31.7479 8.93222 31.6152 9.75632 31.9071C10.8994 32.3319 11.6969 33.4468 11.8564 34.774C11.8564 33.4733 11.8299 32.1726 11.8299 30.8719C11.8564 30.8719 11.6704 24.6338 9.14489 22.6429Z" fill="#3F0D0F"/>
<path d="M9.14502 22.6429C9.14502 22.6429 11.3515 24.8462 11.83 30.8719V18.8735C11.8566 18.8735 10.1552 19.9353 9.14502 22.6429Z" fill="#E1E0D9"/>
<path d="M9.14489 22.6429C9.14489 22.6429 10.8197 29.4119 7.84229 31.8541V26.9432C7.84229 26.9432 8.18788 24.0764 9.14489 22.6429Z" fill="#342F30"/>
<path d="M11.8562 18.8735C11.8562 18.8735 8.53325 21.8466 7.86865 26.9432V18.8735H11.8562Z" fill="#040405"/>
<path d="M12.8135 40.7466C12.8135 40.7466 14.9933 41.7287 16.7745 40.7731C16.7745 40.7731 17.3859 43.3214 19.9645 44.3036C19.9645 44.3036 15.1529 43.8789 12.8135 40.7466Z" fill="#342F30"/>
<path d="M8.85257 34.243C9.22475 35.5437 9.94251 37.4815 11.5375 39.4193C14.5681 43.056 18.5822 44.0381 19.938 44.3036C19.3 44.2771 18.3962 44.1974 17.3062 44.0381C16.1897 43.8789 15.3124 43.7462 14.3288 43.4011C13.6908 43.1887 11.6173 42.4454 9.94251 40.4811C9.27791 39.7113 8.58674 38.8884 8.3209 37.5612C8.08164 36.0481 8.58674 34.7739 8.85257 34.243Z" fill="#3F0D0F"/>
<path d="M16.748 40.7732C16.748 40.7732 19.2469 41.7023 23.2611 41.3041C23.2611 41.3041 20.2039 42.3128 19.9381 44.3037C19.9647 44.3037 17.4658 43.5339 16.748 40.7732Z" fill="#3F0D0F"/>
<path d="M23.2873 41.3041C23.2873 41.3041 20.3365 42.0474 19.9644 44.3037C19.9644 44.3037 23.5266 44.5692 26.4774 43.7994C26.4774 43.7994 29.8801 43.1092 31.741 41.2245C31.741 41.2245 26.2381 44.0117 23.2873 41.3041Z" fill="#040405"/>
<path d="M23.2876 41.304C23.2876 41.304 27.0891 41.1448 29.1626 38.9415C29.1626 38.9415 28.8968 41.304 31.7678 41.2244C31.7412 41.2244 26.4511 44.224 23.2876 41.304Z" fill="#E1E0D9"/>
<path d="M33.735 34.2431C33.735 34.2431 34.3996 32.9955 34.6389 30.8719V25.032L32.2197 29.8366C32.2197 29.8632 32.8843 30.8719 33.735 34.2431Z" fill="#342F30"/>
<path d="M29.1357 38.9415C29.3218 38.7291 29.5877 38.3841 29.8269 37.9593C30.3054 37.0834 30.4649 36.3136 30.5447 35.8092C30.651 35.2518 30.651 34.6412 30.6776 33.4467C30.7042 32.73 30.7042 32.1991 30.7042 31.6947C30.7042 30.8453 30.7042 29.7304 30.6776 28.4297C31.2093 28.8013 32.1131 29.518 32.8043 30.7656C33.3094 31.6416 33.6816 32.8096 33.7347 34.2696C33.7347 34.243 32.2195 38.9415 29.1357 38.9415Z" fill="#040405"/>
<path d="M29.1361 38.9415C29.1361 38.9415 33.1236 39.0211 34.6389 30.8718C34.6389 30.8718 34.9845 35.2518 34.0275 37.7204C34.0275 37.7204 33.5756 39.499 31.7413 41.2244C31.7413 41.2244 28.7905 41.6756 29.1361 38.9415Z" fill="#3F0D0F"/>
<path d="M30.6777 18.8735H34.6387V25.0585C33.0969 24.1825 32.5918 23.5189 32.4057 23.0942C32.3791 23.0411 32.3259 22.9084 32.193 22.5898C31.9538 21.9793 31.7677 21.528 31.6879 21.3422C31.4752 20.8113 31.1562 20.0415 30.6777 18.8735Z" fill="#040405"/>
<path d="M30.6777 28.4297V18.8735C30.9702 19.2717 31.3689 19.9088 31.7677 20.7051C32.4057 22.0324 32.4588 22.6695 33.0969 23.572C33.3893 23.9967 33.8678 24.5276 34.6387 25.032C34.6121 25.6425 34.4792 26.837 33.7349 28.1112C33.2298 28.9606 32.6449 29.5181 32.2196 29.8632C31.7145 29.3854 31.1828 28.9075 30.6777 28.4297Z" fill="#E1E0D9"/>
<path d="M38.6265 18.8735H43.2786L54.1514 35.65V18.8735H58.9897V44.3567H54.3375L43.4647 27.6334V44.3567H38.6265V18.8735Z" fill="black"/>
<path d="M64.4395 18.8735H69.2511V44.3567H64.4395V18.8735Z" fill="black"/>
<path d="M77.1732 18.8735H81.8785L87.7801 36.6321L93.7349 18.8735H98.4402L102.694 44.3567H98.0149L95.2767 28.2705L89.9068 44.3302H85.6534L80.2835 28.2439L77.4922 44.3302H72.7603L77.1732 18.8735Z" fill="black"/>
<path d="M114.311 18.8735H119.229L129.012 44.3567H123.987L121.993 39.1008H111.626L109.552 44.3567H104.528L114.311 18.8735ZM116.81 25.616L113.407 34.3493H120.212L116.81 25.616Z" fill="black"/>
<path d="M127.23 18.8735H132.414L137.146 28.0316L141.878 18.8735H147.009L139.565 33.314V44.3302H134.701V33.2875L127.23 18.8735Z" fill="black"/>
<path d="M30.6776 18.8735V34.0042C30.6776 39.1008 27.7799 41.3837 21.2669 41.3837C16.9603 41.3837 11.8562 40.1095 11.8562 34.0042V18.8735H7.86865V34.2165C7.86865 40.667 12.7335 44.3567 21.1871 44.3567C32.3258 44.3567 34.6651 38.6761 34.6651 33.9246V18.8735H30.6776Z" fill="#040405"/>
<path d="M10.1018 32.0132C9.78282 32.4114 9.46382 32.8892 9.17139 33.4998C8.37388 35.1456 8.32071 36.6852 8.37388 37.5877C8.29413 37.4019 8.21438 37.1099 8.10804 36.7648C8.05487 36.6055 7.89537 35.9419 7.8422 34.9597C7.81562 34.6412 7.81562 34.1634 7.8422 33.2078C7.8422 33.1547 7.8422 32.73 7.8422 32.2256C7.8422 32.1725 7.8422 31.9336 7.8422 31.8805C8.00171 31.8009 8.26754 31.6947 8.58655 31.6947C8.69289 31.6947 8.77264 31.6947 8.87897 31.7212C9.09164 31.6947 9.51698 31.7743 10.1018 32.0132Z" fill="#040405"/>
<path d="M25.4673 30.2082C24.7496 30.2082 24.1913 29.6507 24.1913 28.9871C24.1913 28.3235 24.7761 27.766 25.4673 27.766H29.8802V24.5541H25.4673C24.7496 24.5541 24.1913 23.9966 24.1913 23.333C24.1913 22.6694 24.7761 22.1119 25.4673 22.1119H29.8802V18.9H25.4673C24.7496 18.9 24.1913 18.3425 24.1913 17.6789C24.1913 17.0153 24.7761 16.4578 25.4673 16.4578H29.8802V14.9448C29.8802 11.1223 26.5573 7.98999 22.4899 7.98999H20.1506C16.0832 8.01654 12.7603 11.1488 12.7603 14.9713V16.4844H17.12C17.8378 16.4844 18.396 17.0418 18.396 17.7055C18.396 18.3691 17.8112 18.9265 17.12 18.9265H12.7603V22.165H17.12C17.8378 22.165 18.396 22.7225 18.396 23.3861C18.396 24.0497 17.8112 24.6072 17.12 24.6072H12.7603V27.8457H17.12C17.8378 27.8457 18.396 28.4031 18.396 29.0667C18.396 29.7303 17.8112 30.2878 17.12 30.2878H12.7603V33.4201C12.7603 37.2426 16.0832 40.3749 20.124 40.3749H22.4633C26.5307 40.3749 29.8536 37.2426 29.8536 33.4201V30.2878H25.4673V30.2082Z" fill="#E3E2DA"/>
<path d="M7.84229 31.8541C7.84229 31.8541 8.08154 36.4198 8.29421 36.8711C8.50688 37.3223 10.1019 32.0133 10.1019 32.0133C10.1019 32.0133 8.40055 30.7126 7.84229 31.8541Z" fill="black"/>
<path d="M8.85254 34.243C8.85254 34.243 10.7932 33.7918 12.7072 37.7204C13.0262 38.2779 13.3452 38.6761 13.5845 38.915C14.3554 39.7379 15.1795 40.136 15.6846 40.3484C16.1099 40.5608 16.4821 40.6669 16.7479 40.7466C16.4555 40.9058 16.1099 41.0386 15.6846 41.1182C14.9934 41.2509 14.0098 41.2244 12.7869 40.6935C12.8135 40.7466 9.14496 38.8353 8.85254 34.243Z" fill="#E3E2DA"/>
<path d="M8.85254 34.2431C8.85254 34.2431 10.7666 33.8184 12.7072 37.7205C12.5743 37.5081 12.4679 37.2427 12.3616 36.9772C12.016 36.1543 11.9097 35.3845 11.8831 34.774C11.8033 34.2431 11.6438 33.8184 11.5109 33.5264C11.3514 33.2078 11.1919 32.8627 10.8463 32.5177C10.5539 32.2522 10.2615 32.0929 10.0488 32.0133C9.96906 32.0664 9.86272 32.1726 9.75639 32.3053C9.43738 32.6769 9.30446 33.022 9.11838 33.4998C9.03863 33.7122 8.93229 33.9511 8.85254 34.2431Z" fill="#342F30"/>
<path d="M9.14489 22.6429L7.84229 31.8541C8.18787 31.7479 8.93222 31.6152 9.75632 31.9071C10.8994 32.3319 11.6969 33.4468 11.8564 34.774C11.8564 33.4733 11.8299 32.1726 11.8299 30.8719C11.8564 30.8719 11.6704 24.6338 9.14489 22.6429Z" fill="#3F0D0F"/>
<path d="M9.14502 22.6429C9.14502 22.6429 11.3515 24.8462 11.83 30.8719V18.8735C11.8566 18.8735 10.1552 19.9353 9.14502 22.6429Z" fill="#E3E2DA"/>
<path d="M9.14489 22.6429C9.14489 22.6429 10.8197 29.4119 7.84229 31.8541V26.9432C7.84229 26.9432 8.18788 24.0764 9.14489 22.6429Z" fill="#342F30"/>
<path d="M11.8562 18.8735C11.8562 18.8735 8.53325 21.8466 7.86865 26.9432V18.8735H11.8562Z" fill="#040405"/>
<path d="M12.8135 40.7466C12.8135 40.7466 14.9933 41.7287 16.7745 40.7731C16.7745 40.7731 17.3859 43.3214 19.9645 44.3036C19.9645 44.3036 15.1529 43.8789 12.8135 40.7466Z" fill="#342F30"/>
<path d="M8.85257 34.243C9.22475 35.5437 9.94251 37.4815 11.5375 39.4193C14.5681 43.056 18.5822 44.0381 19.938 44.3036C19.3 44.2771 18.3962 44.1974 17.3062 44.0381C16.1897 43.8789 15.3124 43.7462 14.3288 43.4011C13.6908 43.1887 11.6173 42.4454 9.94251 40.4811C9.27791 39.7113 8.58674 38.8884 8.3209 37.5612C8.08164 36.0481 8.58674 34.7739 8.85257 34.243Z" fill="#3F0D0F"/>
<path d="M16.748 40.7732C16.748 40.7732 19.2469 41.7023 23.2611 41.3041C23.2611 41.3041 20.2039 42.3128 19.9381 44.3037C19.9647 44.3037 17.4658 43.5339 16.748 40.7732Z" fill="#3F0D0F"/>
<path d="M23.2873 41.3041C23.2873 41.3041 20.3365 42.0474 19.9644 44.3037C19.9644 44.3037 23.5266 44.5692 26.4774 43.7994C26.4774 43.7994 29.8801 43.1092 31.741 41.2245C31.741 41.2245 26.2381 44.0117 23.2873 41.3041Z" fill="#040405"/>
<path d="M23.2876 41.304C23.2876 41.304 27.0891 41.1448 29.1626 38.9415C29.1626 38.9415 28.8968 41.304 31.7678 41.2244C31.7412 41.2244 26.4511 44.224 23.2876 41.304Z" fill="#E3E2DA"/>
<path d="M33.735 34.2431C33.735 34.2431 34.3996 32.9955 34.6389 30.8719V25.032L32.2197 29.8366C32.2197 29.8632 32.8843 30.8719 33.735 34.2431Z" fill="#342F30"/>
<path d="M29.1357 38.9415C29.3218 38.7291 29.5877 38.3841 29.8269 37.9593C30.3054 37.0834 30.4649 36.3136 30.5447 35.8092C30.651 35.2518 30.651 34.6412 30.6776 33.4467C30.7042 32.73 30.7042 32.1991 30.7042 31.6947C30.7042 30.8453 30.7042 29.7304 30.6776 28.4297C31.2093 28.8013 32.1131 29.518 32.8043 30.7656C33.3094 31.6416 33.6816 32.8096 33.7347 34.2696C33.7347 34.243 32.2195 38.9415 29.1357 38.9415Z" fill="#040405"/>
<path d="M29.1361 38.9415C29.1361 38.9415 33.1236 39.0211 34.6389 30.8718C34.6389 30.8718 34.9845 35.2518 34.0275 37.7204C34.0275 37.7204 33.5756 39.499 31.7413 41.2244C31.7413 41.2244 28.7905 41.6756 29.1361 38.9415Z" fill="#3F0D0F"/>
<path d="M30.6777 18.8735H34.6387V25.0585C33.0969 24.1825 32.5918 23.5189 32.4057 23.0942C32.3791 23.0411 32.3259 22.9084 32.193 22.5898C31.9538 21.9793 31.7677 21.528 31.6879 21.3422C31.4752 20.8113 31.1562 20.0415 30.6777 18.8735Z" fill="#040405"/>
<path d="M30.6777 28.4297V18.8735C30.9702 19.2717 31.3689 19.9088 31.7677 20.7051C32.4057 22.0324 32.4588 22.6695 33.0969 23.572C33.3893 23.9967 33.8678 24.5276 34.6387 25.032C34.6121 25.6425 34.4792 26.837 33.7349 28.1112C33.2298 28.9606 32.6449 29.5181 32.2196 29.8632C31.7145 29.3854 31.1828 28.9075 30.6777 28.4297Z" fill="#E3E2DA"/>
<path d="M38.6265 18.8735H43.2786L54.1514 35.65V18.8735H58.9897V44.3567H54.3375L43.4647 27.6334V44.3567H38.6265V18.8735Z" fill="black"/>
<path d="M64.4395 18.8735H69.2511V44.3567H64.4395V18.8735Z" fill="black"/>
<path d="M77.1732 18.8735H81.8785L87.7801 36.6321L93.7349 18.8735H98.4402L102.694 44.3567H98.0149L95.2767 28.2705L89.9068 44.3302H85.6534L80.2835 28.2439L77.4922 44.3302H72.7603L77.1732 18.8735Z" fill="black"/>
<path d="M114.311 18.8735H119.229L129.012 44.3567H123.987L121.993 39.1008H111.626L109.552 44.3567H104.528L114.311 18.8735ZM116.81 25.616L113.407 34.3493H120.212L116.81 25.616Z" fill="black"/>
<path d="M127.23 18.8735H132.414L137.146 28.0316L141.878 18.8735H147.009L139.565 33.314V44.3302H134.701V33.2875L127.23 18.8735Z" fill="black"/>
</svg>
