<!DOCTYPE svg PUBLIC "-//W3C//DTD SVG 1.1//EN" "http://www.w3.org/Graphics/SVG/1.1/DTD/svg11.dtd">
<!-- Uploaded to: SVG Repo, www.svgrepo.com, Transformed by: SVG Repo Mixer Tools -->
<svg height="800px" width="800px" version="1.1" id="_x32_" xmlns="http://www.w3.org/2000/svg" xmlns:xlink="http://www.w3.org/1999/xlink" viewBox="0 0 512.00 512.00" xml:space="preserve" fill="#DF4C4C" stroke="#DF4C4C" stroke-width="0.00512">
<g id="SVGRepo_bgCarrier" stroke-width="0"/>
<g id="SVGRepo_tracerCarrier" stroke-linecap="round" stroke-linejoin="round" stroke="#CCCCCC" stroke-width="3.072"/>
<g id="SVGRepo_iconCarrier"> <style type="text/css"> .st0{fill:#DF4C4C;} </style> <g> <path class="st0" d="M257.135,19.179C103.967,19.179,0,97.273,0,218.763c0,74.744,31.075,134.641,91.108,173.176 c4.004,2.572,8.728,2.962,6.955,10.365c-7.16,29.935-19.608,83.276-19.608,83.276c-0.527,2.26,0.321,4.618,2.162,6.03 c1.84,1.402,4.334,1.607,6.38,0.507c0,0,87.864-52.066,99.583-58.573c27.333-15.625,50.878-18.654,68.558-18.654 C376.619,414.89,512,366.282,512,217.458C512,102.036,418.974,19.179,257.135,19.179z"/> </g> </g>
</svg>