<svg width="104" height="104" viewBox="0 0 104 104" fill="none" xmlns="http://www.w3.org/2000/svg">
<path d="M0 6C0 2.68629 2.68629 0 6 0H98C101.314 0 104 2.68629 104 6V98C104 101.314 101.314 104 98 104H6C2.68629 104 0 101.314 0 98V6Z" fill="#151515"/>
<path d="M28.615 54.6564C14.865 63.6318 7.45992 80.5296 4.96552 89.6464C4.65751 90.7721 5.09065 91.9564 6.01416 92.67L14.9607 99.5833C15.3157 99.8576 15.7073 100.047 16.1486 100.129C28.0367 102.312 67.7036 101.026 87.9966 100.049C88.6571 100.017 89.2732 99.7678 89.777 99.3395L97.9156 92.4217C98.6019 91.8384 98.9967 90.9736 98.9456 90.0744C97.91 71.8342 84.1045 59.392 75.7663 54.4739C74.7139 53.8531 73.3996 54.034 72.4398 54.7902C56.2338 67.5583 39.9036 60.9841 32.1795 54.9289C31.1448 54.1178 29.7159 53.9378 28.615 54.6564Z" fill="#D9D9D9"/>
<circle cx="52.5" cy="29.5" r="23.5" fill="#D9D9D9"/>
<g clip-path="url(#clip0_2_44)">
<path d="M16.2339 86.1921C16.0596 86.4112 15.8854 86.6742 15.7257 87.0102C15.2902 87.916 15.2612 88.7633 15.2902 89.26C15.2467 89.1578 15.2031 88.9971 15.145 88.8072C15.116 88.7195 15.0289 88.3543 14.9999 87.8137C14.9853 87.6384 14.9853 87.3755 14.9999 86.8495C14.9999 86.8203 14.9999 86.5866 14.9999 86.309C14.9999 86.2798 14.9999 86.1483 14.9999 86.1191C15.1015 86.0606 15.2321 86.0022 15.4209 86.0022C15.4644 86.0022 15.5225 86.0022 15.5806 86.0022C15.6967 86.0168 15.9145 86.0606 16.2339 86.1921Z" fill="#040405"/>
<path d="M53.617 83.9715C53.4428 84.1907 53.2686 84.4536 53.1089 84.7896C52.6733 85.6954 52.6443 86.5427 52.6733 87.0394C52.6298 86.9372 52.5862 86.7765 52.5282 86.5866C52.4991 86.4989 52.412 86.1337 52.383 85.5931C52.3685 85.4178 52.3685 85.1549 52.383 84.6289C52.383 84.5997 52.383 84.366 52.383 84.0884C52.383 84.0592 52.383 83.9277 52.383 83.8985C52.4701 83.8546 52.6153 83.7962 52.7895 83.7962C52.8476 83.7962 52.8911 83.7962 52.9492 83.8108C53.0798 83.7962 53.2976 83.84 53.617 83.9715Z" fill="#040405"/>
<path d="M24.6252 85.2133C24.2332 85.2133 23.9284 84.9065 23.9284 84.5413C23.9284 84.176 24.2478 83.8692 24.6252 83.8692H27.0351V82.1015H24.6252C24.2332 82.1015 23.9284 81.7947 23.9284 81.4295C23.9284 81.0643 24.2478 80.7575 24.6252 80.7575H27.0351V78.9898H24.6252C24.2332 78.9898 23.9284 78.683 23.9284 78.3178C23.9284 77.9525 24.2478 77.6457 24.6252 77.6457H27.0351V76.813C27.0351 74.7239 25.2204 73 23.0138 73H21.7362C19.515 73 17.7003 74.7239 17.7003 76.8276V77.6603H20.0812C20.4732 77.6603 20.778 77.9671 20.778 78.3324C20.778 78.6976 20.4586 79.0044 20.0812 79.0044H17.7003V80.7867H20.0812C20.4732 80.7867 20.778 81.0935 20.778 81.4587C20.778 81.824 20.4586 82.1308 20.0812 82.1308H17.7003V83.9131H20.0812C20.4732 83.9131 20.778 84.2199 20.778 84.5851C20.778 84.9503 20.4586 85.2571 20.0812 85.2571H17.7003V86.981C17.7003 89.0847 19.515 90.8086 21.7217 90.8086H22.9992C25.2204 90.8086 27.0351 89.0847 27.0351 86.981V85.2133H24.6252Z" fill="#E83036"/>
<path d="M15.5517 87.4339C15.5517 87.4339 16.6115 87.1855 17.6567 89.3477C17.8309 89.6545 18.0052 89.8736 18.1358 90.0051C18.5568 90.458 19.0069 90.6771 19.2827 90.794C19.515 90.9109 19.7182 90.9693 19.8634 91.0132C19.7037 91.1008 19.515 91.1739 19.2827 91.2177C18.9052 91.2907 18.3681 91.2761 17.7003 90.9839C17.7148 91.0132 15.7259 89.9759 15.5517 87.4339Z" fill="#999999"/>
<path d="M15.5517 87.4339C15.5517 87.4339 16.5969 87.2002 17.6567 89.3477C17.5841 89.2308 17.5261 89.0847 17.468 88.9386C17.2793 88.4858 17.2212 88.0621 17.2067 87.7261C17.1631 87.4339 17.076 87.2002 17.0034 87.0395C16.9163 86.8641 16.8292 86.6742 16.6405 86.4843C16.4808 86.3382 16.3211 86.2506 16.205 86.2067C16.1614 86.2359 16.1033 86.2944 16.0453 86.3674C15.8711 86.5866 15.7985 86.7765 15.6968 87.0395C15.6533 87.1417 15.6097 87.2732 15.5517 87.4339Z" fill="#342F30"/>
<path d="M15.7261 81.0497L15.0147 86.1191C15.2034 86.0606 15.6099 85.9876 16.06 86.1483C16.6842 86.382 17.1198 86.9956 17.2069 87.7261C17.2069 87.0102 17.1924 86.2944 17.1924 85.5785C17.1924 85.5785 17.1053 82.16 15.7261 81.0497Z" fill="#3F0D0F"/>
<path d="M15.7259 81.0497C15.7259 81.0497 16.9309 82.2622 17.1922 85.5785V78.9752C17.1922 78.9752 16.263 79.5741 15.7259 81.0497Z" fill="#999999"/>
<path d="M15.7261 81.0497C15.7261 81.0497 16.6407 84.775 15.0147 86.1191V83.4164C15.0147 83.4164 15.2034 81.8386 15.7261 81.0497Z" fill="#342F30"/>
<path d="M17.1924 78.9752C17.1924 78.9752 15.3777 80.6114 15.0147 83.4164V78.9752H17.1924Z" fill="#040405"/>
<path d="M17.7148 91.0132C17.7148 91.0132 18.9052 91.5537 19.8779 91.0278C19.8779 91.0278 20.2118 92.4302 21.6201 92.9708C21.6201 92.9708 18.9924 92.737 17.7148 91.0132Z" fill="#342F30"/>
<path d="M15.5517 87.4339C15.7549 88.1497 16.1469 89.2162 17.018 90.2827C18.673 92.2842 20.8651 92.8247 21.6055 92.9708C21.2571 92.9562 20.7635 92.9123 20.1683 92.8247C19.5586 92.737 19.0795 92.664 18.5423 92.4741C18.1939 92.3572 17.0615 91.9481 16.1469 90.8671C15.784 90.4434 15.4065 89.9905 15.2613 89.26C15.1452 88.4273 15.421 87.7261 15.5517 87.4339Z" fill="#3F0D0F"/>
<path d="M19.8779 91.0278C19.8779 91.0278 21.2426 91.5391 23.4348 91.3199C23.4348 91.3199 21.7652 91.8751 21.6201 92.9708C21.6201 92.9708 20.2554 92.5471 19.8779 91.0278Z" fill="#3F0D0F"/>
<path d="M23.4348 91.3199C23.4348 91.3199 21.8233 91.729 21.6201 92.9708C21.6201 92.9708 23.5654 93.1169 25.1769 92.6932C25.1769 92.6932 27.0351 92.3134 28.0514 91.2761C28.0659 91.2761 25.0607 92.8101 23.4348 91.3199Z" fill="#040405"/>
<path d="M23.4348 91.3199C23.4348 91.3199 25.5108 91.2323 26.6432 90.0197C26.6432 90.0197 26.498 91.3199 28.0659 91.2761C28.0659 91.2761 25.1624 92.927 23.4348 91.3199Z" fill="#999999"/>
<path d="M29.1402 87.4339C29.1402 87.4339 29.5031 86.7473 29.6338 85.5785V82.3645L28.3127 85.0088C28.3127 85.0234 28.6756 85.5931 29.1402 87.4339Z" fill="#342F30"/>
<path d="M26.6432 90.0197C26.7448 89.9029 26.89 89.7129 27.0206 89.4792C27.282 88.9971 27.3691 88.5734 27.4126 88.2958C27.4707 87.989 27.4707 87.653 27.4852 86.9956C27.4997 86.6012 27.4997 86.309 27.4997 86.0314C27.4997 85.5639 27.4997 84.9503 27.4852 84.2345C27.7756 84.439 28.2692 84.8335 28.6466 85.5201C28.9224 86.0022 29.1257 86.645 29.1547 87.4485C29.1402 87.4339 28.3272 90.0197 26.6432 90.0197Z" fill="#040405"/>
<path d="M26.6432 90.0197C26.6432 90.0197 28.8208 90.0636 29.6483 85.5785C29.6483 85.5785 29.8371 87.989 29.3144 89.3477C29.3144 89.3477 29.0676 90.3265 28.0659 91.2761C28.0659 91.2761 26.4544 91.5245 26.6432 90.0197Z" fill="#3F0D0F"/>
<path d="M27.4852 78.9752H29.6483V82.3791C28.8063 81.897 28.5305 81.5318 28.4288 81.298C28.4143 81.2688 28.3853 81.1958 28.3127 81.0205C28.182 80.6844 28.0804 80.4361 28.0369 80.3338C27.9207 80.0416 27.7465 79.618 27.4852 78.9752Z" fill="#040405"/>
<path d="M27.4852 84.2345V78.9752C27.6449 79.1943 27.8627 79.5449 28.0804 79.9832C28.4288 80.7137 28.4579 81.0643 28.8063 81.561C28.966 81.7947 29.2273 82.0869 29.6483 82.3645C29.6338 82.7005 29.5612 83.3579 29.1547 84.0592C28.8789 84.5267 28.5595 84.8335 28.3272 85.0234C28.0369 84.7604 27.761 84.4974 27.4852 84.2345Z" fill="#999999"/>
<path d="M31.8115 78.9752H34.3521L40.2898 88.2082V78.9752H42.932V93H40.3914L34.4537 83.7962V93H31.8115V78.9752Z" fill="black"/>
<path d="M45.9226 78.9752H48.5358V93H45.9226V78.9752Z" fill="black"/>
<path d="M52.8621 78.9752H55.4317L58.6546 88.7487L61.9066 78.9752H64.4762L66.799 93H64.2439L62.7631 84.1468L59.816 93H57.4932L54.5752 84.1468L53.0363 93H50.4521L52.8621 78.9752Z" fill="black"/>
<path d="M73.1433 78.9752H75.829L81.1715 93H78.4277L77.3389 90.1074H71.677L70.5446 93H67.8008L73.1433 78.9752ZM74.5079 82.6859L72.6351 87.5069H76.3517L74.5079 82.6859Z" fill="black"/>
<path d="M80.1989 78.9752H83.0298L85.6139 84.0153L88.1981 78.9752H91L86.9351 86.9226V93H84.2783V86.9226L80.1989 78.9752Z" fill="black"/>
</g>
<defs>
<clipPath id="clip0_2_44">
<rect width="76" height="20" fill="white" transform="translate(15 73)"/>
</clipPath>
</defs>
</svg>
